<svg xmlns="http://www.w3.org/2000/svg" height="20px" viewBox="0 -960 960 960" width="20px" fill="#314158"><path d="M671-168h48v-72h72v-48h-72v-72h-48v72h-72v48h72v72Zm23.77 96Q615-72 559-128.23q-56-56.22-56-136Q503-344 559.23-400q56.22-56 136-56Q775-456 831-399.77q56 56.22 56 136Q887-184 830.77-128q-56.22 56-136 56ZM360-648v-72h456v72H360ZM215.79-204Q186-204 165-225.21t-21-51Q144-306 165.21-327t51-21Q246-348 267-326.79t21 51Q288-246 266.79-225t-51 21Zm0-204Q186-408 165-429.21t-21-51Q144-510 165.21-531t51-21Q246-552 267-530.79t21 51Q288-450 266.79-429t-51 21ZM165-633.21q-21-21.21-21-51T165.21-735q21.21-21 51-21T267-734.79q21 21.21 21 51T266.79-633q-21.21 21-51 21T165-633.21ZM360-240v-72h75q-3 18-4 36t1 36h-72Zm0-204v-72h256q-33 11-62 29t-52 43H360Z"/></svg>